<?xml version="1.0" encoding="iso-8859-1"?>
<!-- Uploaded to: SVG Repo, www.svgrepo.com, Generator: SVG Repo Mixer Tools -->
<svg fill="#000000" height="800px" width="800px" version="1.1" id="Layer_1" xmlns="http://www.w3.org/2000/svg" xmlns:xlink="http://www.w3.org/1999/xlink" 
	 viewBox="0 0 512 512" xml:space="preserve">
<g>
	<g>
		<path d="M458.211,220.283c-32.267-32.122-74.44-50.73-119.598-52.97v-4.188c0-5.633-4.567-10.199-10.199-10.199
			c-5.632,0-10.199,4.566-10.199,10.199v4.305c-9.839,0.597-19.618,1.973-29.19,4.131c-39.633,8.938-75.657,31.316-101.433,63.013
			c-24.016,29.532-38.208,66.162-40.524,104.1H10.199C4.567,338.674,0,343.24,0,348.873c0,5.633,4.567,10.199,10.199,10.199h491.602
			v0.001c2.714,0,5.316-1.082,7.229-3.005c1.914-1.924,2.983-4.531,2.97-7.245C511.763,300.227,492.66,254.577,458.211,220.283z
			 M167.485,338.676c3.825-57.484,37.237-107.36,86.906-133.001c-22.3,33.12-36.249,80.719-37.986,133.001H167.485z
			 M236.838,338.675c2.359-65.088,25.332-123.254,58.714-147.66c11.069-2.345,22.433-3.535,33.809-3.535
			c73.763,0,136.368,49.727,155.915,117.414h-26.312c-5.632,0-10.199,4.566-10.199,10.199c0,5.633,4.567,10.199,10.199,10.199
			h30.785c0.671,4.407,1.175,8.868,1.481,13.382H236.838z"/>
	</g>
</g>
<g>
	<g>
		<path d="M427.411,304.896h-8.287c-5.632,0-10.199,4.566-10.199,10.199c0,5.633,4.567,10.199,10.199,10.199h8.287
			c5.632,0,10.199-4.566,10.199-10.199C437.61,309.462,433.043,304.896,427.411,304.896z"/>
	</g>
</g>
</svg>